<?xml version="1.0" encoding="UTF-8"?>
<svg version="1.1" xmlns="http://www.w3.org/2000/svg" width="1024" height="1024">
<path d="M0 0 C0.50852005 0.16364044 1.0170401 0.32728088 1.54096985 0.49588013 C4.81667793 1.16742518 8.01803026 1.10607311 11.34448242 1.06591797 C12.07853806 1.06124512 12.81259369 1.05657227 13.56889343 1.05175781 C15.16214163 1.04126717 16.75537669 1.0286084 18.34859276 1.01403427 C20.88655708 0.99191657 23.42444544 0.97789461 25.96247864 0.96633911 C33.17911135 0.93286807 40.39562191 0.89181393 47.61206055 0.82861328 C52.03225186 0.79048682 56.45231239 0.76779333 60.87264442 0.75430679 C62.54165583 0.74635997 64.21065209 0.73290934 65.8795681 0.71337509 C79.73269041 0.55428867 95.04094496 0.74536046 107.4375 7.6875 C108.41976562 8.20969116 108.41976562 8.20969116 109.421875 8.74243164 C115.14053783 11.87740373 120.24714906 15.52118732 125 20 C125.70511719 20.66386719 126.41023438 21.32773438 127.13671875 22.01171875 C143.6430997 39.02115131 144.19452333 61.76609948 144.01831055 84.09963989 C143.8721545 103.75835936 144.15820923 123.40763427 144.5 143.0625 C144.5180368 144.10539625 144.5180368 144.10539625 144.53643799 145.16936111 C144.68548038 153.77967472 144.83976033 162.38988725 145 171 C145.95968464 169.43878523 146.91444548 167.87454324 147.8671875 166.30908203 C148.39940918 165.43833038 148.93163086 164.56757874 149.47998047 163.67044067 C151.81248465 159.57258936 153.43490085 155.31211142 155 150.875 C155.33539795 149.9363208 155.6707959 148.9976416 156.01635742 148.03051758 C163.08907017 127.66345964 167.384114 106.5066733 169.35449219 85.06518555 C169.90266289 79.19467423 169.90266289 79.19467423 171 77 C175.52641008 75.10282584 179.3965771 77.08440948 183.7734375 78.64453125 C197.40464974 84.3709606 208.00100652 94.46877153 214 108 C216.01347411 113.90476718 217.53862677 119.93900504 219 126 C220.00417969 126.15855469 221.00835938 126.31710937 222.04296875 126.48046875 C245.95261898 130.46246954 265.32757106 141.73743797 279.67578125 161.546875 C288.57974859 174.42236983 294.59443194 190.16256103 293.74609375 205.94140625 C293.67358398 207.55885742 293.67358398 207.55885742 293.59960938 209.20898438 C293.49125299 211.45052558 293.34779909 213.6906363 293.16992188 215.92773438 C293.05776971 219.21556377 293.08353367 221.83617898 294 225 C296.96790395 227.81515725 300.31928944 229.29037281 304 231 C318.87184454 241.11643739 328.85050116 254.74835292 336 271 C336.45503906 272.010625 336.91007813 273.02125 337.37890625 274.0625 C339.18356027 278.28803136 340.19520951 281.3556403 340 286 C340.66 286.33 341.32 286.66 342 287 C344.1033012 315.93052119 340.67672447 341.62573605 321.23046875 364.4921875 C317.11423731 369.12024457 313.43356691 373.22180659 308 376.25 C306.19929395 377.37639639 306.19929395 377.37639639 305 379 C304.73533263 381.69960721 305.09895021 384.04691255 305.515625 386.7265625 C307.92598813 403.01595204 304.67295989 418.51139418 297 433 C296.49726562 433.97453125 295.99453125 434.9490625 295.4765625 435.953125 C283.52885767 457.82920426 264.01041114 469.74309245 240.69140625 476.6875 C239.13170597 477.13940511 237.56663006 477.57273726 236 478 C235.97873047 478.94746094 235.97873047 478.94746094 235.95703125 479.9140625 C234.98922247 498.06701635 225.86912758 512.76544479 213 525 C195.75815636 540.21061275 175.59317347 545.38657521 153 545 C152.67 545.66 152.34 546.32 152 547 C151.67 547.33 151.34 547.66 151 548 C150.53402041 550.16072065 150.10269053 552.32894783 149.6875 554.5 C146.73650071 568.46429808 139.97657128 581.67696677 128 590 C123.39629816 592.55212874 119.54050404 594 114.25 594 C109.49904216 592.53816682 106.22112989 591.17743644 103.703125 586.6875 C100.7851694 579.97220492 100.7851694 579.97220492 101.46047974 576.91612244 C102.21021088 572.86380418 102.10559772 568.91850094 102.06591797 564.80688477 C102.06124512 563.88920319 102.05657227 562.97152161 102.05175781 562.02603149 C102.04127405 560.03771841 102.02861759 558.04941586 102.01403427 556.06112862 C101.99198729 552.9128158 101.97792409 549.7645634 101.96633911 546.61619568 C101.93276553 537.66616563 101.89108725 528.71623588 101.82861328 519.76635742 C101.79094407 514.28819469 101.76793652 508.81013445 101.75430679 503.3318615 C101.7462583 501.24626747 101.73265758 499.16068712 101.71337509 497.0751667 C101.68686625 494.15748595 101.67900025 491.2402961 101.67529297 488.32250977 C101.6629361 487.46361649 101.65057922 486.60472321 101.6378479 485.71980286 C101.65721268 479.93410267 102.5767953 475.62418139 106.6484375 471.21484375 C110.1657055 469.39778337 113.73041771 469.07248581 117.625 468.5625 C130.30785643 466.63607011 140.22020309 462.94371054 148.8203125 452.8671875 C157.07043058 441.30043903 158.17003988 428.98846124 158.0625 415.23046875 C158.05871338 414.1136824 158.05492676 412.99689606 158.05102539 411.8462677 C158.0347868 407.09985752 158.00667896 402.35353582 157.97949219 397.60717773 C157.96128749 394.12744555 157.94926837 390.64772774 157.9375 387.16796875 C157.92505249 385.58461983 157.92505249 385.58461983 157.91235352 383.96928406 C157.85242424 365.56487603 157.85242424 365.56487603 161.0625 361.1875 C162.031875 360.465625 163.00125 359.74375 164 359 C165.33365657 358.00043113 166.66696912 357.00040314 168 356 C168.639375 355.54625 169.27875 355.0925 169.9375 354.625 C188.313581 340.14687558 198.70833866 318.2318426 201.63671875 295.44140625 C202.09063353 291.14141786 202.41968627 286.84072559 202.65625 282.5234375 C203.35443943 277.39809235 205.44123187 275.58868868 209.43505859 272.40234375 C212.1345456 269.98333387 213.93345191 267.07491141 215.8125 264 C216.2362793 263.30704834 216.66005859 262.61409668 217.09667969 261.90014648 C225.37914849 247.92309551 230.71980196 233.47116294 233.79785156 217.52563477 C235.04370704 211.47048285 236.62240097 207.34240705 240.6887207 202.63208008 C244.15867067 198.31321664 243.44830127 192.23018146 243 187 C241.65253476 183.54653852 241.65253476 183.54653852 240 181 C240 180.34 240 179.68 240 179 C236.77484237 177.26337666 233.48670834 176.1094072 230 175 C230 174.34 230 173.68 230 173 C223.82659548 172.59738666 218.82588561 174.03427286 213 176 C212.01 176.33 211.02 176.66 210 177 C208.91568906 178.74867483 208.91568906 178.74867483 208 181 C207.46375 181.86625 206.9275 182.7325 206.375 183.625 C204.25147736 188.83728285 203.86632159 194.03084225 205.90234375 199.36328125 C206.5988537 200.79843876 207.33589908 202.21515602 208.125 203.6015625 C210.73179744 210.74698049 208.25621254 217.47571648 205.875 224.3125 C205.56167725 225.23442139 205.24835449 226.15634277 204.92553711 227.10620117 C202.57577215 233.82379239 199.84453817 239.986748 196 246 C194.68 246 193.36 246 192 246 C190.17578125 243.5078125 190.17578125 243.5078125 188.3125 240.125 C178.29807613 222.83937728 162.55772393 212.08510519 143.4375 206.625 C132.12491552 203.51138778 132.12491552 203.51138778 121 205 C121 204.34 121 203.68 121 203 C93.20687881 205.33440247 71.0983877 212.41344208 52 234 C49.7813415 236.89009462 47.85707101 239.86825303 46 243 C45.50242187 243.77601563 45.00484375 244.55203125 44.4921875 245.3515625 C42.44228031 248.70086442 41.02022236 251.02932691 40.9375 255 C41.8481833 257.57134107 42.89590679 259.91592222 44.0625 262.375 C47.05843163 268.95946511 46.55463235 273.84959869 44.375 280.5625 C41.20027848 288.53237381 36.86636616 293.50179863 28.9609375 297.0390625 C20.12498037 299.90666864 12.31897611 300.24814543 3.9375 296 C-2.81664425 291.81491675 -8.03590452 287.14312754 -10.5234375 279.42578125 C-12.20515307 270.8655733 -11.98172033 262.82069875 -7.5625 255.1875 C-4.17958267 250.45141573 0.05270932 246.1149608 5 243 C5.66 243 6.32 243 7 243 C7.28141846 242.43176514 7.56283691 241.86353027 7.8527832 241.27807617 C9.88330808 237.24597836 12.03830371 233.28226039 14.1875 229.3125 C14.64447266 228.45205078 15.10144531 227.59160156 15.57226562 226.70507812 C18.8607709 220.65258644 22.61078453 215.30305425 27 210 C27.73605469 209.10410156 28.47210937 208.20820313 29.23046875 207.28515625 C47.30911914 186.75271699 73.4899532 172.53463934 101.05541992 170.7019043 C102.4886297 170.61532907 103.92198536 170.531139 105.35546875 170.44921875 C106.46166565 170.38317444 106.46166565 170.38317444 107.59020996 170.3157959 C109.39335006 170.20844005 111.19665912 170.10392857 113 170 C113.04652465 156.56877587 113.08197094 143.13757119 113.10362434 129.70628262 C113.11402157 123.46830315 113.12810594 117.23037918 113.15087891 110.99243164 C113.17275292 104.96237207 113.1845991 98.93236558 113.18975449 92.90226936 C113.19342427 90.612012 113.20058973 88.32175725 113.21146011 86.03152275 C114.52691938 61.79591032 114.52691938 61.79591032 105.53515625 40.3671875 C95.97070372 31.41035901 85.43851564 29.84542144 72.82824707 29.86628723 C71.81856762 29.86402167 70.80888818 29.86175612 69.76861238 29.85942191 C66.39325592 29.85310355 63.01793984 29.85390988 59.64257812 29.85473633 C57.21943612 29.85174355 54.79629459 29.84834075 52.37315369 29.84455872 C46.47955495 29.83664487 40.58596564 29.83350468 34.69236267 29.83294634 C29.90139809 29.83247052 25.1104368 29.83041248 20.31947327 29.82724571 C6.72791876 29.81844502 -6.86362786 29.8138256 -20.45518523 29.81457619 C-21.18717626 29.81461614 -21.91916728 29.8146561 -22.67333984 29.81469727 C-23.77267059 29.81475859 -23.77267059 29.81475859 -24.89421004 29.81482115 C-36.77775855 29.8152278 -48.66127541 29.80565183 -60.54481477 29.7915589 C-72.75485642 29.77719325 -84.96488264 29.77028877 -97.17493296 29.77115268 C-104.02678675 29.7714845 -110.87860732 29.76874341 -117.73045349 29.75797462 C-124.17203274 29.74791516 -130.61355993 29.74820685 -137.05514336 29.75549126 C-139.41944417 29.75653837 -141.78374934 29.75416672 -144.14804268 29.7481308 C-147.37486042 29.74042617 -150.60143466 29.74504566 -153.82824707 29.75276184 C-154.76414657 29.74761828 -155.70004607 29.74247471 -156.66430616 29.73717529 C-161.81233108 29.764387 -166.18064395 30.11040041 -171 32 C-173.02878905 35.04318358 -173.24901807 35.60134174 -173.23809814 39.00961304 C-173.24059067 39.82268417 -173.24308319 40.63575531 -173.24565125 41.47346497 C-173.23838516 42.36184555 -173.23111908 43.25022614 -173.22363281 44.16552734 C-173.22424461 45.57328178 -173.22424461 45.57328178 -173.22486877 47.00947571 C-173.22506645 49.04911026 -173.22102125 51.08874857 -173.21326447 53.12836838 C-173.20306099 56.3561867 -173.20840736 59.58361757 -173.21868896 62.81143188 C-173.24670303 71.98926581 -173.25912671 81.16688238 -173.22998047 90.34472656 C-173.21327223 95.95699635 -173.2255348 101.56857396 -173.25643158 107.18077469 C-173.26254427 109.3201938 -173.25764377 111.45967364 -173.24155426 113.59904099 C-173.21998658 116.59203055 -173.23522347 119.58275729 -173.25878906 122.57568359 C-173.24342606 123.46001572 -173.22806305 124.34434784 -173.2122345 125.25547791 C-173.30964804 131.04654361 -173.30964804 131.04654361 -175.20418549 133.66312027 C-178.29163946 136.45611675 -181.04684719 137.64661866 -185.1484375 137.80859375 C-186.19741211 137.85483887 -187.24638672 137.90108398 -188.32714844 137.94873047 C-189.53918945 137.96564941 -190.75123047 137.98256836 -192 138 C-192.69017212 138.01073547 -193.38034424 138.02147095 -194.09143066 138.03253174 C-199.02406582 138.09990418 -203.9551954 138.09821152 -208.88815308 138.07516479 C-211.67943074 138.06224812 -214.47066018 138.05584816 -217.26196289 138.05102539 C-223.17466389 138.03968527 -229.08732427 138.02040634 -235 138 C-241.88409126 137.97636387 -248.76816044 137.95601933 -255.65228271 137.94406128 C-258.39989249 137.93758859 -261.14743268 137.92508911 -263.89501953 137.91235352 C-265.57454366 137.90872211 -267.25406842 137.90537024 -268.93359375 137.90234375 C-270.07596245 137.89459427 -270.07596245 137.89459427 -271.2414093 137.88668823 C-274.6356395 137.88634804 -277.75648578 137.92906328 -281 139 C-281.89446088 142.82912117 -282.12612901 146.37485973 -282.12863445 150.30326366 C-282.1318589 151.5819747 -282.13508335 152.86068573 -282.1384055 154.17814559 C-282.13693439 155.59501606 -282.13536668 157.01188644 -282.13371277 158.42875671 C-282.13558101 159.93562258 -282.13788177 161.44248795 -282.14057809 162.94935256 C-282.14670098 167.09173122 -282.14656192 171.23408972 -282.14538372 175.37647188 C-282.14517983 179.8435595 -282.15069737 184.31064062 -282.15544128 188.77772522 C-282.16375143 197.53080938 -282.1664963 206.2838868 -282.16705366 215.03697457 C-282.16752872 222.15252252 -282.16958294 229.26806825 -282.17275429 236.38361549 C-282.1815624 256.55695465 -282.1861735 276.73028848 -282.18542381 296.90362956 C-282.18536388 298.53530876 -282.18536388 298.53530876 -282.18530273 300.19995117 C-282.18526185 301.28906557 -282.18522097 302.37817996 -282.18517885 303.50029782 C-282.18477249 321.14685069 -282.19433906 338.79338222 -282.2084411 356.43992891 C-282.22280629 374.55875584 -282.22971118 392.67757237 -282.22884732 410.79640514 C-282.22851537 420.96888525 -282.23126169 431.14134299 -282.24202538 441.31381798 C-282.25113231 449.97612052 -282.25330408 458.63839055 -282.24651595 467.3006958 C-282.24325154 471.71909854 -282.24319123 476.13743892 -282.2518692 480.55583572 C-282.2597387 484.60430619 -282.25829816 488.65266488 -282.24958507 492.70113263 C-282.24805106 494.16212097 -282.24986251 495.62311768 -282.25544515 497.08409616 C-282.53095275 512.50957748 -282.53095275 512.50957748 -276 526 C-275.46375 526.70125 -274.9275 527.4025 -274.375 528.125 C-266.34447747 534.46488621 -256.70465874 535.1502695 -246.89772034 535.11352539 C-245.35731997 535.11374868 -245.35731997 535.11374868 -243.7858004 535.11397648 C-240.33838067 535.11328109 -236.891014 535.10543387 -233.44360352 535.09765625 C-230.97253448 535.09573705 -228.50146506 535.09427326 -226.03039551 535.0932312 C-220.69941508 535.09006571 -215.36845077 535.08389983 -210.03747749 535.07516479 C-202.28844393 535.06256576 -194.53941544 535.05652224 -186.79037332 535.05223143 C-174.16289786 535.04515773 -161.53542876 535.03436114 -148.90795898 535.02050781 C-148.15216629 535.01968 -147.3963736 535.01885219 -146.6176781 535.01799929 C-139.7453525 535.01043868 -132.87302718 535.0026373 -126.0007019 534.99479675 C-121.46523038 534.98962861 -116.92975878 534.98452649 -112.39428711 534.97949219 C-111.27699872 534.97825 -111.27699872 534.97825 -110.13713885 534.97698271 C-97.59592136 534.96316553 -85.05470376 534.95347377 -72.5134806 534.94658184 C-65.49573556 534.94255166 -58.47800503 534.93639206 -51.46026802 534.92483521 C-0.95265302 534.84318072 -0.95265302 534.84318072 19.8991071 535.26773262 C21.51088709 535.29961671 23.12276135 535.32710853 24.73469818 535.34971428 C26.89118331 535.38203453 29.04634092 535.43311752 31.20228577 535.49047852 C32.38253861 535.5162648 33.56279146 535.54205109 34.77880955 535.56861877 C39.08621574 536.14546581 42.36922409 537.73240999 45.7890625 540.390625 C48.31665024 543.74987064 48.73746488 547.89320055 49 552 C47.45223444 557.90085622 44.81313077 560.59069904 40 564 C36.85815944 565.04728019 34.62745497 565.14011926 31.32832336 565.16494751 C30.14111537 565.17618558 28.95390738 565.18742365 27.73072338 565.19900227 C25.76667034 565.20998589 25.76667034 565.20998589 23.76293945 565.22119141 C22.36472672 565.23238848 20.96651713 565.24398413 19.56831074 565.25594616 C15.72765645 565.28740038 11.88698388 565.31242125 8.04627466 565.33609033 C4.77139683 565.35691631 1.49654648 565.38105967 -1.77830911 565.40509588 C-12.48564098 565.48332848 -23.19303682 565.54799793 -33.90047884 565.60903215 C-36.6774579 565.62494247 -39.45443459 565.6412195 -42.23141098 565.65758896 C-94.05118163 565.96165106 -145.87039479 566.13008099 -197.69059962 565.84563947 C-202.82557366 565.81816869 -207.96052306 565.80040214 -213.09555054 565.78668213 C-219.97731282 565.76784297 -226.85865541 565.72716236 -233.7402153 565.67125893 C-236.23339534 565.65377152 -238.7266297 565.64260151 -241.21986771 565.63850975 C-261.49415093 565.59628274 -279.66101801 564.16829978 -295.41796875 549.71484375 C-308.32965634 535.71921201 -312.41658968 519.79856241 -312.67919922 501.26123047 C-312.71228189 499.58361082 -312.74571957 497.90599814 -312.77946281 496.22839165 C-313.27481794 468.94885254 -313.14618714 441.6536564 -313.13530231 414.37053484 C-313.1329901 408.44451053 -313.13273961 402.51848908 -313.13381577 396.59246445 C-313.133969 395.73905392 -313.13412223 394.88564339 -313.13428011 394.00637194 C-313.13459992 392.27119105 -313.13492414 390.53601016 -313.1352527 388.80082928 C-313.13808069 372.66374554 -313.13486177 356.52666756 -313.12945233 340.38958476 C-313.12497537 326.60786485 -313.12577279 312.82615336 -313.13037109 299.04443359 C-313.13574504 282.93107143 -313.13781805 266.81771424 -313.13475883 250.70435131 C-313.13444036 248.98093915 -313.13412599 247.25752699 -313.13381577 245.53411484 C-313.13366149 244.68673476 -313.13350721 243.83935468 -313.13334826 242.96629641 C-313.13249239 237.05497441 -313.13392548 231.14365564 -313.13629532 225.23233414 C-313.13912458 218.0187337 -313.13828958 210.80514411 -313.13301457 203.59154488 C-313.13042093 199.92648839 -313.12929712 196.26144987 -313.13266373 192.59639359 C-313.14393242 179.07843098 -313.08189068 165.57019655 -312.59347534 152.05953979 C-312.55997644 151.05087361 -312.52647753 150.04220742 -312.49196351 149.00297558 C-311.31496926 120.76997859 -291.32356256 104.13653655 -272.61743164 85.43212891 C-269.90679435 82.71926918 -267.20430189 79.99845713 -264.50195312 77.27734375 C-262.78173782 75.55420037 -261.06105235 73.8315262 -259.33984375 72.109375 C-258.53159653 71.29394226 -257.7233493 70.47850952 -256.89060974 69.6383667 C-256.14545609 68.89628967 -255.40030243 68.15421265 -254.63256836 67.38964844 C-253.97735703 66.73301208 -253.32214569 66.07637573 -252.64707947 65.39984131 C-251 64 -251 64 -249 64 C-248.731875 63.360625 -248.46375 62.72125 -248.1875 62.0625 C-247 60 -247 60 -244 59 C-243.56880859 58.12214844 -243.56880859 58.12214844 -243.12890625 57.2265625 C-241.60630534 54.22350881 -239.48048 52.56306049 -236.9375 50.375 C-233.48348875 47.56907909 -233.48348875 47.56907909 -231 44 C-230.34 44 -229.68 44 -229 44 C-228.67 43.01 -228.34 42.02 -228 41 C-226.328125 39.3515625 -226.328125 39.3515625 -224.25 37.625 C-219.91939093 33.94167058 -215.94968333 30.17773276 -212.375 25.75 C-203.93429211 15.87394331 -191.03543308 6.00248898 -178 4 C-177.67 3.34 -177.34 2.68 -177 2 C-156.93075902 1.15556967 -136.90264409 0.84782981 -116.81809473 0.8656745 C-112.96579586 0.86826752 -109.11349895 0.86584284 -105.26119995 0.86428833 C-98.82582153 0.86249115 -92.39045476 0.86481244 -85.95507812 0.86962891 C-78.5354687 0.87511812 -71.11588656 0.87326564 -63.69627774 0.8678025 C-57.26845826 0.8632615 -50.84064698 0.86262414 -44.41282642 0.86524117 C-40.59732735 0.86679198 -36.78184114 0.86702968 -32.96634293 0.86370468 C-29.39883196 0.86080979 -25.83135641 0.86283129 -22.26384926 0.86859894 C-20.3415138 0.87054113 -18.41917534 0.86759011 -16.49684143 0.86447144 C-10.89347028 0.87816211 -5.51664145 0.983682 0 2 C0 1.34 0 0.68 0 0 Z M256.4453125 293 C254.93697126 294.95182552 254.93697126 294.95182552 253.9921875 297.1875 C253 299 253 299 250 300 C248.15123758 300.09254094 246.30209648 300.18154023 244.4519043 300.23876953 C237.49906087 300.47838595 231.72985254 300.7306981 226 305 C223.62136952 308.82022471 222.9851043 311.13604937 223.0625 315.625 C224.10780676 319.38810435 225.20833971 321.28588582 228 324 C233.47557074 327.09208701 240.06610872 326.25933167 246.1640625 326.12695312 C251.36834859 326.20501742 254.23947045 326.63854381 257.96875 330.43359375 C258.48630859 331.05419678 259.00386719 331.6747998 259.53710938 332.31420898 C263.39407764 336.75886283 268.97057881 337.67425579 274.54296875 338.2734375 C281.76051085 338.55062523 287.14144299 337.34792082 293 333 C299.76635807 326.1883062 303.25062499 319.9675003 303.4375 310.25 C303.28371757 302.13370488 301.36523502 296.67453971 295.875 290.6796875 C288.81085106 284.02124982 282.81324049 282.49842235 273.1875 282.6953125 C265.46730298 283.43327251 261.30531239 287.21320943 256.4453125 293 Z M223 394 C220.1875 395.3125 220.1875 395.3125 218 396 C217.505 395.505 217.505 395.505 217 395 C213.13185792 394.74523527 209.25052466 394.8147611 205.375 394.8125 C204.29347656 394.80025391 203.21195313 394.78800781 202.09765625 394.77539062 C192.33420321 394.71369272 192.33420321 394.71369272 183.625 398.6875 C181.40910245 401.84089266 181.13218604 404.16660485 181 408 C181.74863191 411.81802274 182.55469993 413.55469993 185.3125 416.3125 C189.78195972 419.11890494 193.96511785 419.10486052 199.1484375 419.03515625 C200.90414062 419.04385742 200.90414062 419.04385742 202.6953125 419.05273438 C205.14070513 419.05922427 207.58632627 419.03855819 210.03125 418.99023438 C218.83214069 419.10145442 218.83214069 419.10145442 222.28149414 421.75537109 C224.12109375 423.90234375 224.12109375 423.90234375 225.58764648 426.03881836 C228.01514571 429.40962239 231.05050236 430.92530677 235 432 C242.60600371 432.99750868 249.57399758 432.41941546 256 428 C262.3151064 422.20510352 265.42480278 416.62795831 266 408 C265.30529698 400.74421288 262.72642751 395.50339943 257.43359375 390.52734375 C246.39533929 381.74283962 232.24841301 383.95886588 223 394 Z " fill="#725DFE" transform="translate(487,193)"/>
<path d="M0 0 C2.6875 2.4375 2.6875 2.4375 5 5 C5.46921875 5.47695313 5.9384375 5.95390625 6.421875 6.4453125 C15.81392869 16.46673062 19.40919955 28.87264441 19.3125 42.3125 C19.30686035 43.14209229 19.3012207 43.97168457 19.29541016 44.82641602 C18.96929063 61.42137943 12.61196284 74.30154209 1 86 C0.13375 86.9075 -0.7325 87.815 -1.625 88.75 C-6.07553418 92.96629554 -10.73116673 96.80930182 -15.625 100.5 C-20.18055283 104.01383939 -24.13435834 107.40307502 -26 113 C-26.19667991 116.68228496 -26.34417207 120.35859588 -26.4296875 124.04492188 C-26.68931706 130.53025193 -27.76521882 136.27636044 -32 141.4375 C-35.37985584 144.07801238 -38.65325632 144.34339125 -42.87109375 144.28125 C-46.67104026 143.77923872 -48.89379957 142.25351796 -52 140 C-56.42911053 133.98309513 -55.80574499 127.18743547 -56 120 C-56.03254883 119.03803711 -56.06509766 118.07607422 -56.09863281 117.08496094 C-56.1968634 113.9108231 -56.25945495 110.73769445 -56.3125 107.5625 C-56.35733521 106.03532349 -56.35733521 106.03532349 -56.40307617 104.47729492 C-56.45152696 98.13232501 -55.7371088 93.25508021 -52 88 C-49.375 85.625 -49.375 85.625 -47 84 C-46.34 83.34 -45.68 82.68 -45 82 C-43.3463641 80.93776861 -41.67728651 79.89947898 -40 78.875 C-28.99030989 71.91468544 -16.4540305 63.3256088 -13 50 C-11.99467331 41.75010264 -12.67532623 34.21679935 -17 27 C-21.75896619 21.78779893 -28.42416436 18.36237208 -35.515625 17.80078125 C-41.95458056 18.15512629 -47.79236665 20.18166643 -53 24 C-59.29100278 31.2735732 -60.27357823 37.96443889 -61.20703125 47.3359375 C-62.07498759 51.3464944 -63.1097921 53.13592418 -66 56 C-69.74439157 58.37564339 -73.71755098 59.28367895 -78.125 58.9375 C-83.70315421 57.58794656 -87.35571107 55.55509766 -90.375 50.625 C-94.3808714 41.55287948 -92.39010509 30.98707076 -89.25390625 21.9609375 C-87.35883779 17.48597833 -85.03325826 13.78480215 -82 10 C-81.34 9.16597656 -80.68 8.33195312 -80 7.47265625 C-59.08728413 -17.36119385 -25.36025562 -19.05741322 0 0 Z " fill="#7D59FE" transform="translate(644,439)"/>
<path d="M0 0 C1.07917427 -0.00573832 1.07917427 -0.00573832 2.18015003 -0.01159257 C4.58526274 -0.02189214 6.99013536 -0.01793628 9.39526367 -0.01396179 C11.12185893 -0.0183099 12.84845226 -0.02349338 14.57504272 -0.02944946 C19.26090508 -0.04283872 23.94668678 -0.04341831 28.63256454 -0.04088616 C32.54425742 -0.0398166 36.45593396 -0.04469935 40.36762333 -0.04949158 C49.59462264 -0.0605861 58.82158123 -0.06102421 68.04858398 -0.05497742 C77.56951848 -0.04893402 87.09030533 -0.06125806 96.61121464 -0.08254749 C104.78543319 -0.10015395 112.9596047 -0.10616643 121.13384151 -0.10290974 C126.01607719 -0.10109553 130.8982075 -0.10374702 135.78042603 -0.11762428 C140.37036437 -0.1301828 144.96007214 -0.12827731 149.55000687 -0.11521339 C151.23464663 -0.11284391 152.91930252 -0.11559561 154.6039238 -0.12383652 C156.90337286 -0.13427425 159.20204392 -0.12622793 161.50146484 -0.11352539 C162.78824631 -0.11369313 164.07502777 -0.11386087 165.40080261 -0.1140337 C170.01416696 0.40202682 172.62146562 1.8977882 175.56323242 5.44819641 C177.11308451 9.11889872 177.58440623 12.38032379 176.75073242 16.26069641 C174.99465596 19.27854632 172.92136807 21.67537858 169.75073242 23.26069641 C167.47598287 23.3738228 165.19786577 23.4206635 162.92037964 23.43910217 C162.20969365 23.44615685 161.49900767 23.45321152 160.76678574 23.46047997 C158.37326709 23.48295241 155.97975591 23.4982898 153.58618164 23.5136261 C151.87474749 23.52811067 150.16331662 23.54298712 148.45188904 23.55822754 C143.79255785 23.59818625 139.13320244 23.63149778 134.4738059 23.66281414 C131.56274196 23.68252184 128.65168835 23.70337179 125.74063492 23.72457123 C116.63277207 23.79057181 107.52489491 23.85253395 98.41696632 23.9087503 C87.90374184 23.97367522 77.39072562 24.05178096 66.87768352 24.14143252 C58.75280358 24.20992558 50.62789406 24.2666917 42.50286686 24.31459928 C37.65005949 24.34346932 32.79740681 24.37727167 27.94472885 24.42325592 C23.37624922 24.46621789 18.80790628 24.49459017 14.23925972 24.51191139 C12.56552211 24.52073695 10.89180226 24.53473895 9.21815681 24.55439568 C-6.65778881 24.7352408 -6.65778881 24.7352408 -13.24926758 21.26069641 C-16.03710253 18.29862178 -16.47067318 15.70278213 -16.68676758 11.76069641 C-16.56692296 8.48675946 -16.24757621 7.25775218 -14.56176758 4.32319641 C-10.05383364 0.30260668 -5.91143546 0.00943082 0 0 Z " fill="#3E69FD" transform="translate(276.249267578125,561.7393035888672)"/>
<path d="M0 0 C0.69454035 -0.00311998 1.3890807 -0.00623996 2.10466772 -0.00945449 C4.41366263 -0.01738157 6.72239084 -0.0111317 9.03138733 -0.00482178 C10.6942968 -0.00753402 12.35720508 -0.01109626 14.02011108 -0.01544189 C18.5242524 -0.02454112 23.02830184 -0.02103163 27.53244472 -0.01468372 C32.25325052 -0.00961012 36.97404861 -0.01431904 41.69485474 -0.01745605 C49.62280179 -0.02109209 57.55071156 -0.01630648 65.47865295 -0.0067749 C74.63372633 0.00410519 83.78871058 0.00058584 92.94378179 -0.01042771 C100.81405426 -0.0195154 108.68429996 -0.02077851 116.55457598 -0.01555037 C121.25073332 -0.01243834 125.94684884 -0.01200017 130.64300346 -0.01862335 C135.05975815 -0.0244176 139.47639842 -0.02036195 143.89314079 -0.00883484 C145.51040457 -0.0061992 147.12767803 -0.00693455 148.7449379 -0.01136017 C164.47253666 -0.05041738 164.47253666 -0.05041738 170.75819397 2.25396729 C173.78795204 5.43521325 174.99146637 7.99501118 175.19569397 12.31646729 C174.74552836 16.3679578 174.44107151 18.22491199 171.75819397 21.25396729 C166.75842683 23.80515956 163.08724793 24.62980997 157.39576721 24.63491821 C156.68827064 24.63959818 155.98077407 24.64427816 155.25183821 24.64909995 C152.8989441 24.6609941 150.54663849 24.65161504 148.19374084 24.64215088 C146.4996507 24.64621907 144.8055632 24.65156235 143.11148071 24.65808105 C138.52266213 24.67173097 133.93404641 24.66646561 129.34522438 24.6569438 C124.53719674 24.64933516 119.72918618 24.65639616 114.92115784 24.66110229 C106.84776194 24.66655633 98.77444844 24.65937745 90.70106506 24.64508057 C81.3743878 24.62875474 72.0479073 24.63404349 62.7212348 24.65055978 C54.70574687 24.66418465 46.6903181 24.66608941 38.67482233 24.65824378 C33.89092949 24.65357277 29.10712905 24.65292667 24.32324219 24.66285324 C19.82518261 24.67153519 15.32737611 24.66547858 10.8293438 24.64817047 C9.18102373 24.64421219 7.53268228 24.64532839 5.8843708 24.65195847 C3.62950235 24.66019039 1.37543832 24.64983346 -0.87937927 24.63491821 C-2.76970509 24.6332216 -2.76970509 24.6332216 -4.6982193 24.63149071 C-9.61759826 24.10739438 -13.75016258 22.88996333 -17.17930603 19.12896729 C-18.67404756 15.08437257 -18.92188196 11.51216998 -18.24180603 7.25396729 C-16.27157181 3.54992694 -15.00382724 2.51903801 -11.04207516 1.14093399 C-7.21451937 0.24759869 -3.92384688 0.0023923 0 0 Z " fill="#3F69FE" transform="translate(278.24180603027344,393.74603271484375)"/>
<path d="M0 0 C1.13208389 -0.00281982 2.26416779 -0.00563965 3.43055725 -0.00854492 C5.27264519 -0.00550858 5.27264519 -0.00550858 7.15194702 -0.00241089 C8.45693649 -0.00416321 9.76192596 -0.00591553 11.10646057 -0.00772095 C14.67965773 -0.01227192 18.25282593 -0.01051366 21.82602358 -0.00734186 C25.58695837 -0.00479876 29.34789079 -0.00716191 33.10882568 -0.00872803 C39.43879639 -0.01054717 45.76875543 -0.00815336 52.09872437 -0.00338745 C59.36592959 0.00202175 66.63310661 0.000316 73.90031111 -0.00521386 C80.17245744 -0.00979189 86.44459541 -0.01037188 92.71674287 -0.00777519 C96.44748479 -0.00623369 100.1782136 -0.00595836 103.90895462 -0.00931168 C130.44277066 -0.02943908 130.44277066 -0.02943908 142.88143921 0.44778442 C143.67224192 0.46974821 144.46304462 0.491712 145.27781105 0.51434135 C149.70212769 0.72807827 152.69490414 1.38181749 156.21200562 4.12698364 C158.82725891 8.1851353 159.91325309 11.31842951 159.21200562 16.12698364 C157.17206653 19.78480545 155.707813 21.79644539 152.21200562 24.12698364 C147.78397356 25.36619044 143.25647107 25.363666 138.68856812 25.47854614 C137.42456429 25.5138871 137.42456429 25.5138871 136.13502502 25.54994202 C133.36913854 25.6237219 130.60315377 25.68881493 127.83700562 25.75198364 C126.89424774 25.77477386 125.95148987 25.79756409 124.98016357 25.82104492 C105.03513177 26.28621491 85.14463179 25.86759264 65.21200562 25.12698364 C64.88200562 25.78698364 64.55200562 26.44698364 64.21200562 27.12698364 C64.21200562 26.46698364 64.21200562 25.80698364 64.21200562 25.12698364 C62.76809448 25.18027832 62.76809448 25.18027832 61.29501343 25.23464966 C43.74028392 25.86474715 26.18498554 26.3471782 8.61886597 25.98583984 C7.06600324 25.95513432 5.51299801 25.93089906 3.95993042 25.91339111 C-11.34458718 25.72112226 -11.34458718 25.72112226 -16.78799438 21.12698364 C-18.71857733 18.30415831 -19.43276737 15.51882867 -19.78799438 12.12698364 C-18.41944063 6.90937245 -16.40948541 3.92137356 -11.78799438 1.12698364 C-7.82297952 0.28822661 -4.04549503 0.00155833 0 0 Z " fill="#3F69FE" transform="translate(278.7879943847656,475.8730163574219)"/>
<path d="M0 0 C1.44793237 -0.00135689 2.8958644 -0.00313844 4.34379578 -0.00531006 C8.25689907 -0.00984976 12.16997585 -0.00810923 16.08307958 -0.00493097 C20.18774691 -0.00238992 24.29241204 -0.00474972 28.39707947 -0.00631714 C35.28751023 -0.00813354 42.17793025 -0.0057462 49.06835938 -0.00097656 C57.02432524 0.0044672 64.98026548 0.00270044 72.93623072 -0.00280297 C79.77975911 -0.0073466 86.6232798 -0.00797858 93.46680921 -0.0053643 C97.54866324 -0.00380869 101.63050523 -0.00358816 105.71235847 -0.00690079 C109.54962547 -0.00979774 113.38685954 -0.00777034 117.224123 -0.00200653 C118.62895147 -0.0006888 120.03378273 -0.00105622 121.43861008 -0.0032692 C123.36251982 -0.00601956 125.28643565 -0.00195237 127.21034241 0.00241089 C128.2849022 0.00278791 129.35946199 0.00316494 130.46658421 0.00355339 C139.45049669 0.3624159 139.45049669 0.3624159 142.61303711 2.44189453 C146.07241108 6.49189333 147.51671207 9.58746459 147.14819336 14.97705078 C146.22429158 18.72021166 144.42667249 20.51569302 141.61694336 23.12939453 C138.28068512 24.24148061 135.77638675 24.26363404 132.26029968 24.27656555 C131.61268498 24.28024224 130.96507027 24.28391893 130.29783088 24.28770703 C128.12383888 24.29873606 125.94989469 24.30258635 123.77587891 24.30639648 C122.21868742 24.31266167 120.66149743 24.31930852 119.10430908 24.3263092 C113.98743734 24.34734334 108.87056531 24.35771014 103.75366211 24.36767578 C101.99210914 24.37172341 100.23055633 24.37584033 98.46900368 24.38002586 C90.19406475 24.39907515 81.91913473 24.41330742 73.64417809 24.42163783 C64.09144807 24.43141339 54.53894956 24.45774225 44.98630112 24.49813873 C37.60276647 24.52829135 30.21929823 24.54310585 22.83570319 24.54641885 C18.4256242 24.54877009 14.01579262 24.55774016 9.60577965 24.58288002 C5.45657865 24.60615129 1.30778815 24.61039793 -2.84146118 24.60011864 C-4.36282402 24.59962295 -5.884207 24.60595314 -7.40550804 24.61967468 C-9.48598362 24.6373873 -11.56498488 24.63029277 -13.64546204 24.61714172 C-15.39010223 24.62072425 -15.39010223 24.62072425 -17.16998768 24.62437916 C-21.63805989 23.93605685 -24.95196947 21.9507782 -27.75805664 18.37939453 C-28.98607137 13.95854149 -29.46260772 10.20118007 -27.32055664 6.09033203 C-24.76018279 2.70896874 -23.48050065 1.32503155 -19.15113831 0.55325317 C-12.78990355 -0.14781509 -6.39098897 -0.01008339 0 0 Z " fill="#4168FE" transform="translate(388.383056640625,304.87060546875)"/>
<path d="M0 0 C0.80308594 -0.02900391 1.60617187 -0.05800781 2.43359375 -0.08789062 C3.21605469 -0.09626953 3.99851562 -0.10464844 4.8046875 -0.11328125 C5.51351074 -0.12786377 6.22233398 -0.14244629 6.95263672 -0.1574707 C10.23430729 0.55248837 11.82383104 1.89159142 14.125 4.3125 C14.82763672 7.39233398 14.82763672 7.39233398 14.9296875 11.12109375 C14.95368622 11.81101913 14.97768494 12.50094452 15.00241089 13.21177673 C15.07335775 15.57901767 15.10223628 17.94432168 15.125 20.3125 C15.13809204 21.18706848 15.15118408 22.06163696 15.16467285 22.96270752 C15.24751437 28.76251176 15.26769306 34.56075422 15.25537109 40.36108398 C15.24995263 43.40157935 15.25538084 46.44193063 15.26171875 49.48242188 C15.26105881 51.43750032 15.25977941 53.39257868 15.2578125 55.34765625 C15.25983673 56.24565445 15.26186096 57.14365265 15.26394653 58.06886292 C15.21631582 70.89407891 15.21631582 70.89407891 12.65234375 74.2265625 C8.71293031 75.91923164 4.92792433 75.74536781 0.6875 75.6875 C-0.15876953 75.69910156 -1.00503906 75.71070313 -1.87695312 75.72265625 C-7.15521127 75.69785629 -10.95882767 75.22867233 -14.875 71.3125 C-15.04895166 68.75717706 -15.15944989 66.22685359 -15.2265625 63.66796875 C-15.25025909 62.8786647 -15.27395569 62.08936066 -15.29837036 61.27613831 C-15.37270363 58.68422787 -15.43764407 56.09222509 -15.5 53.5 C-15.52179321 52.62323608 -15.54358643 51.74647217 -15.56604004 50.84313965 C-15.84360044 39.2423886 -15.96561925 27.66299614 -15.625 16.0625 C-15.59873535 14.90516357 -15.5724707 13.74782715 -15.54541016 12.55541992 C-15.50464355 11.5007251 -15.46387695 10.44603027 -15.421875 9.359375 C-15.38932617 8.45026367 -15.35677734 7.54115234 -15.32324219 6.60449219 C-14.78825979 3.86897219 -14.07949543 2.97531197 -11.875 1.3125 C-7.87750195 -0.01999935 -4.18698778 0.04992434 0 0 Z " fill="#406AFE" transform="translate(430.875,632.6875)"/>
<path d="M0 0 C0.79662048 -0.00428513 1.59324097 -0.00857025 2.41400146 -0.01298523 C4.09841972 -0.0187205 5.78286274 -0.0192347 7.46728516 -0.01489258 C10.02420227 -0.01174665 12.57994576 -0.03515173 15.13671875 -0.06054688 C16.77864439 -0.06282159 18.42057311 -0.06352256 20.0625 -0.0625 C21.195737 -0.07631462 21.195737 -0.07631462 22.35186768 -0.09040833 C29.65290425 -0.02787625 35.60836262 2.01821304 41.453125 6.4453125 C42.24847656 7.04021484 43.04382813 7.63511719 43.86328125 8.24804688 C44.66636719 8.86357422 45.46945312 9.47910156 46.296875 10.11328125 C47.09996094 10.71720703 47.90304687 11.32113281 48.73046875 11.94335938 C50.32170571 13.14130033 51.90912124 14.34433636 53.49243164 15.55273438 C55.01833737 16.71021769 56.55396128 17.85500919 58.09936523 18.98632812 C58.81294189 19.50904297 59.52651855 20.03175781 60.26171875 20.5703125 C60.89456787 21.02897705 61.52741699 21.4876416 62.17944336 21.96020508 C64.78722028 24.12160931 65.83010567 26.0782168 66.796875 29.30078125 C67.086034 34.02993001 66.40241371 36.58927327 63.296875 40.23828125 C62.059375 41.25921875 62.059375 41.25921875 60.796875 42.30078125 C60.466875 42.63078125 60.136875 42.96078125 59.796875 43.30078125 C53.58567847 44.20240655 50.50615566 43.53363673 45.421875 39.80078125 C43.53433874 38.31658724 41.65951319 36.81610431 39.796875 35.30078125 C29.06426763 26.92519677 20.30549316 23.12215199 6.66015625 23.3515625 C5.91314453 23.3621167 5.16613281 23.3726709 4.39648438 23.38354492 C2.9013255 23.4111562 1.40634809 23.45366798 -0.08789062 23.51293945 C-4.93015374 23.61687692 -8.09931032 22.87415075 -12.203125 20.30078125 C-15.20871026 16.79426512 -15.67783479 13.70288067 -15.4921875 9.23046875 C-15.05967603 6.34316244 -14.04723375 4.54005616 -12.203125 2.30078125 C-8.46415203 -0.3079242 -4.38271111 -0.00523114 0 0 Z " fill="#565FFE" transform="translate(490.203125,530.69921875)"/>
<path d="M0 0 C1.2694043 -0.02416992 1.2694043 -0.02416992 2.56445312 -0.04882812 C11.11719651 -0.05552565 11.11719651 -0.05552565 14.5625 3.3125 C18.8770646 10.42446744 17.8088084 19.21110663 17.47143555 27.18823242 C17.37479951 29.50480626 17.30561329 31.82102604 17.24023438 34.13867188 C17.18910666 35.6276602 17.13642614 37.1165962 17.08203125 38.60546875 C17.05058769 39.63222969 17.05058769 39.63222969 17.01850891 40.67973328 C16.7928158 45.65294187 15.78808727 49.86132546 13.5625 54.3125 C9.46107484 55.67964172 5.48470452 55.75804029 1.1875 56 C0.33671875 56.05994141 -0.5140625 56.11988281 -1.390625 56.18164062 C-9.86617693 56.66350612 -9.86617693 56.66350612 -13.4375 54.3125 C-16.07138311 49.62875362 -15.72653424 44.77544804 -15.703125 39.55859375 C-15.70503845 38.62072525 -15.7069519 37.68285675 -15.70892334 36.71656799 C-15.71028131 34.73885835 -15.70661201 32.76113967 -15.69824219 30.78344727 C-15.68752522 27.75712081 -15.69815686 24.73138633 -15.7109375 21.70507812 C-15.70961607 19.78124869 -15.70705402 17.85741963 -15.703125 15.93359375 C-15.70717346 15.02935165 -15.71122192 14.12510956 -15.71539307 13.19346619 C-15.70908875 12.34901443 -15.70278442 11.50456268 -15.69628906 10.63452148 C-15.69469788 9.89459457 -15.69310669 9.15466766 -15.69146729 8.39231873 C-15.39680742 5.97925554 -14.69731849 4.3826576 -13.4375 2.3125 C-9.24229605 -0.47674371 -4.86254628 -0.0184327 0 0 Z " fill="#406AFE" transform="translate(357.4375,652.6875)"/>
<path d="M0 0 C0.73734375 -0.00322266 1.4746875 -0.00644531 2.234375 -0.00976562 C7.23741965 0.03954754 11.2000958 0.52597155 15.125 3.75 C17.88136115 7.19545144 17.57142526 10.96402496 17.625 15.1875 C17.65078125 16.40179687 17.6765625 17.61609375 17.703125 18.8671875 C17.34562863 22.62089938 16.76296911 24.41578965 14.375 27.3125 C9.87392183 30.1288646 4.57790283 29.6437196 -0.5625 29.625 C-1.44357422 29.64111328 -2.32464844 29.65722656 -3.23242188 29.67382812 C-8.41548465 29.67771057 -12.2003885 29.32320544 -16.625 26.3125 C-19.50221358 19.90416067 -19.62144251 12.53628459 -17.5625 5.875 C-13.17779607 0.07587544 -6.73414192 -0.14872222 0 0 Z " fill="#416AFE" transform="translate(290.625,678.6875)"/>
<path d="M0 0 C3.81164964 3.96411563 5.71901731 8.42105992 7.75 13.4375 C8.06582031 14.17548828 8.38164062 14.91347656 8.70703125 15.67382812 C10.44034831 19.89456771 11.59820769 23.3587334 11 28 C8.15426696 31.57749297 5.48023724 33.93327685 1 35 C-3.30933405 34.92304761 -5.38965736 34.47471094 -8.8125 31.8125 C-13.01837024 26.40495255 -13.34127957 21.02802093 -13.3125 14.4375 C-13.32861328 13.69564453 -13.34472656 12.95378906 -13.36132812 12.18945312 C-13.36539358 7.62394513 -12.89286066 4.73661168 -10 1 C-6.62771107 -1.55828815 -3.95120002 -1.23475 0 0 Z " fill="#5162FE" transform="translate(502,593)"/>
<path d="M0 0 C3.20384041 1.29516953 4.5905657 2.51997358 6.8125 5.125 C8.48348384 9.17053981 8.81202898 12.68941627 8 17 C6.27778727 20.34520333 3.88610006 22.44918105 0.6875 24.4375 C-4.14714259 25.44940194 -8.32354159 24.74509263 -12.8125 22.75 C-15.42824482 20.65740415 -16.66855907 19.08333688 -18 16 C-18.53715295 10.98657251 -18.12527558 7.98742057 -15 4 C-10.67495974 -0.84928757 -6.10845317 -0.82519466 0 0 Z " fill="#8359FD" transform="translate(608,604)"/>
<path d="M0 0 C0.33 0 0.66 0 1 0 C2.27473585 12.98546411 2.15378693 25.96648428 2.125 39 C2.12411377 40.14786987 2.12322754 41.29573975 2.12231445 42.47839355 C2.10610733 60.33677663 1.84909042 78.1600682 1 96 C0.34 96 -0.32 96 -1 96 C-1.02312154 83.63081285 -1.04091412 71.26163081 -1.05181217 58.89242649 C-1.05704141 53.14954938 -1.0641398 47.40668699 -1.07543945 41.66381836 C-1.08626687 36.12660005 -1.09227652 30.58939596 -1.09487724 25.05216789 C-1.09673176 22.93455723 -1.10035286 20.81694738 -1.10573006 18.69934273 C-1.11293856 15.74428726 -1.11399102 12.78929129 -1.11352539 9.83422852 C-1.11712067 8.94950363 -1.12071594 8.06477875 -1.12442017 7.15324402 C-1.11405216 1.11405216 -1.11405216 1.11405216 0 0 Z " fill="#8659F7" transform="translate(590,671)"/>
<path d="M0 0 C1.26400383 0.01077827 1.26400383 0.01077827 2.55354309 0.02177429 C3.85615837 0.02246162 3.85615837 0.02246162 5.18508911 0.02316284 C7.02691509 0.02618803 8.86873845 0.03408227 10.71052551 0.0464325 C13.51310939 0.06455734 16.31536015 0.06694303 19.11799622 0.06669617 C20.90901467 0.07161674 22.70003089 0.07744739 24.49104309 0.08427429 C25.32359116 0.08538712 26.15613922 0.08649994 27.01391602 0.08764648 C31.72685157 0.12552264 36.2049863 0.4714471 40.85432434 1.25224304 C40.85432434 1.58224304 40.85432434 1.91224304 40.85432434 2.25224304 C6.1586573 3.6525166 6.1586573 3.6525166 -8.14567566 2.25224304 C-5.50560522 -0.38782739 -3.59201897 0.01420322 0 0 Z " fill="#675DF8" transform="translate(358.1456756591797,193.7477569580078)"/>
<path d="M0 0 C2 3 2 3 2 5 C1.34 5 0.68 5 0 5 C-0.1546875 6.3303125 -0.1546875 6.3303125 -0.3125 7.6875 C-1.44621048 13.14992323 -4.4906477 16.76457481 -8 21 C-8.66 20.67 -9.32 20.34 -10 20 C-9.61328125 19.47792969 -9.2265625 18.95585938 -8.828125 18.41796875 C-4.69841714 12.58117867 -2.16072283 6.79992186 0 0 Z " fill="#8258FA" transform="translate(644,628)"/>
<path d="M0 0 C2.36511111 3.54766666 2.18013277 4.8072782 1.9765625 8.98046875 C1.925 10.14384766 1.8734375 11.30722656 1.8203125 12.50585938 C1.75585938 13.72080078 1.69140625 14.93574219 1.625 16.1875 C1.56828125 17.41404297 1.5115625 18.64058594 1.453125 19.90429688 C1.31153051 22.93677888 1.16010492 25.96844806 1 29 C0.67 29 0.34 29 0 29 C-0.19616609 24.5420032 -0.38047068 20.08359465 -0.5625 15.625 C-0.61857422 14.35398437 -0.67464844 13.08296875 -0.73242188 11.7734375 C-0.80493164 9.95585938 -0.80493164 9.95585938 -0.87890625 8.1015625 C-0.9260376 6.98088379 -0.97316895 5.86020508 -1.02172852 4.70556641 C-1 2 -1 2 0 0 Z " fill="#7F54F8" transform="translate(646,595)"/>
<path d="M0 0 C0.66 0 1.32 0 2 0 C2.125 7.75 2.125 7.75 1 10 C0.9603287 11.66619446 0.95615553 13.33391013 1 15 C-1.5999945 12.4000055 -2.25206552 10.60368433 -3 7 C-2.28347061 4.42771104 -1.24355794 2.39145758 0 0 Z " fill="#8658F8" transform="translate(591,765)"/>
<path d="M0 0 C0.33 0.99 0.66 1.98 1 3 C-2.96 6.96 -6.92 10.92 -11 15 C-11.66 14.67 -12.32 14.34 -13 14 C-12.34 13.360625 -11.68 12.72125 -11 12.0625 C-7.14346256 8.2170765 -3.59166578 4.09075581 0 0 Z " fill="#7B56F9" transform="translate(671,533)"/>
<path d="M0 0 C0.77734375 1.703125 0.77734375 1.703125 1 4 C-0.87109375 6.359375 -0.87109375 6.359375 -3.4375 8.75 C-4.70400391 9.94882812 -4.70400391 9.94882812 -5.99609375 11.171875 C-6.65738281 11.77515625 -7.31867187 12.3784375 -8 13 C-8.99 12.67 -9.98 12.34 -11 12 C-10.54109375 11.63648438 -10.0821875 11.27296875 -9.609375 10.8984375 C-5.56506013 7.58481817 -2.67466686 4.49344033 0 0 Z " fill="#7E56F7" transform="translate(751,610)"/>
<path d="M0 0 C4.29 0.33 8.58 0.66 13 1 C11 3 11 3 8.3984375 3.1953125 C7.40070312 3.17210937 6.40296875 3.14890625 5.375 3.125 C3.87066406 3.09792969 3.87066406 3.09792969 2.3359375 3.0703125 C1.56507813 3.04710937 0.79421875 3.02390625 0 3 C0 2.01 0 1.02 0 0 Z " fill="#835BF9" transform="translate(720,624)"/>
<path d="M0 0 C1.18414294 3.55242882 0.69535532 4.69830562 -0.4375 8.1875 C-0.72496094 9.08855469 -1.01242187 9.98960937 -1.30859375 10.91796875 C-1.53675781 11.60503906 -1.76492188 12.29210937 -2 13 C-2.66 12.67 -3.32 12.34 -4 12 C-3.33501617 7.61110675 -1.81242323 4.0188515 0 0 Z " fill="#8859FB" transform="translate(636,745)"/>
<path d="M0 0 C-3.07692746 2.6815279 -5.19734663 3.42087807 -9.25 3.6875 C-10.14203125 3.75324219 -11.0340625 3.81898438 -11.953125 3.88671875 C-12.62859375 3.92410156 -13.3040625 3.96148438 -14 4 C-11.68516093 1.68516093 -10.10977477 1.2391044 -7 0.3125 C-6.113125 0.04050781 -5.22625 -0.23148438 -4.3125 -0.51171875 C-2 -1 -2 -1 0 0 Z " fill="#8359F9" transform="translate(622,659)"/>
<path d="M0 0 C0.99 0.33 1.98 0.66 3 1 C-0.3 3.31 -3.6 5.62 -7 8 C-7.33 7.34 -7.66 6.68 -8 6 C-7.34 6 -6.68 6 -6 6 C-5.67 5.01 -5.34 4.02 -5 3 C-3.35 2.67 -1.7 2.34 0 2 C0 1.34 0 0.68 0 0 Z " fill="#8257F6" transform="translate(693,720)"/>
<path d="M0 0 C0.66 0.33 1.32 0.66 2 1 C1.54625 1.7425 1.0925 2.485 0.625 3.25 C-0.68640796 5.46930578 -1.88280803 7.67967822 -3 10 C-3.36923077 4.58461538 -3.36923077 4.58461538 -1.5 1.625 C-1.005 1.08875 -0.51 0.5525 0 0 Z " fill="#815AFA" transform="translate(649,553)"/>
<path d="M0 0 C3 1 3 1 4.1875 3.25 C4.99938294 5.99791147 5.16260121 8.15447889 5 11 C4.731875 10.443125 4.46375 9.88625 4.1875 9.3125 C2.99300335 6.91066602 2.99300335 6.91066602 1.375 4.375 C0 2 0 2 0 0 Z " fill="#6860F9" transform="translate(552,554)"/>
<path d="M0 0 C0.99 0.33 1.98 0.66 3 1 C2.01 1.33 1.02 1.66 0 2 C0 1.34 0 0.68 0 0 Z " fill="#8F65F5" transform="translate(675,733)"/>
<path d="" fill="#8A66FC" transform="translate(0,0)"/>
<path d="M0 0 C3 1 3 1 3 1 Z " fill="#6B71FA" transform="translate(485,529)"/>
<path d="M0 0 C2 1 2 1 2 1 Z " fill="#5E75FC" transform="translate(277,708)"/>
<path d="" fill="#8E69F9" transform="translate(0,0)"/>
<path d="M0 0 C2 1 2 1 2 1 Z " fill="#5376FE" transform="translate(353,651)"/>
<path d="M0 0 C2 1 2 1 2 1 Z " fill="#8D66FB" transform="translate(602,630)"/>
<path d="M0 0 C2 1 2 1 2 1 Z " fill="#8C66FD" transform="translate(678,609)"/>
<path d="" fill="#9066FD" transform="translate(0,0)"/>
<path d="" fill="#8B64FC" transform="translate(0,0)"/>
<path d="" fill="#8965FC" transform="translate(0,0)"/>
<path d="M0 0 C2 1 2 1 2 1 Z " fill="#8B65FE" transform="translate(624,543)"/>
<path d="" fill="#8865FD" transform="translate(0,0)"/>
<path d="M0 0 C2 1 2 1 2 1 Z " fill="#8966FE" transform="translate(625,496)"/>
<path d="" fill="#8466FD" transform="translate(0,0)"/>
<path d="M0 0 C2 1 2 1 2 1 Z " fill="#8067FD" transform="translate(752,479)"/>
<path d="M0 0 C2 1 2 1 2 1 Z " fill="#8A64FD" transform="translate(627,471)"/>
<path d="" fill="#746DFC" transform="translate(0,0)"/>
<path d="M0 0 C2 1 2 1 2 1 Z " fill="#8366FD" transform="translate(624,427)"/>
<path d="M0 0 C2 1 2 1 2 1 Z " fill="#786BFF" transform="translate(714,367)"/>
<path d="" fill="#796BFD" transform="translate(0,0)"/>
<path d="" fill="#8B64E7" transform="translate(0,0)"/>
<path d="" fill="#8C66E5" transform="translate(0,0)"/>
<path d="" fill="#8B65E5" transform="translate(0,0)"/>
<path d="" fill="#8D65F1" transform="translate(0,0)"/>
<path d="" fill="#7468F3" transform="translate(0,0)"/>
<path d="" fill="#7266F4" transform="translate(0,0)"/>
<path d="" fill="#746AF3" transform="translate(0,0)"/>
<path d="" fill="#7266F3" transform="translate(0,0)"/>
<path d="" fill="#736AF5" transform="translate(0,0)"/>
<path d="" fill="#7469F6" transform="translate(0,0)"/>
<path d="" fill="#7269F3" transform="translate(0,0)"/>
<path d="" fill="#726AF4" transform="translate(0,0)"/>
<path d="" fill="#7266F6" transform="translate(0,0)"/>
<path d="" fill="#766AF2" transform="translate(0,0)"/>
<path d="" fill="#946BF9" transform="translate(0,0)"/>
<path d="" fill="#9466F9" transform="translate(0,0)"/>
<path d="" fill="#796BEF" transform="translate(0,0)"/>
<path d="" fill="#936AFA" transform="translate(0,0)"/>
<path d="" fill="#8E63F6" transform="translate(0,0)"/>
<path d="" fill="#9269F9" transform="translate(0,0)"/>
<path d="" fill="#8268F5" transform="translate(0,0)"/>
<path d="" fill="#846AF5" transform="translate(0,0)"/>
<path d="" fill="#8167F7" transform="translate(0,0)"/>
<path d="" fill="#826AF8" transform="translate(0,0)"/>
<path d="" fill="#7E6DF5" transform="translate(0,0)"/>
<path d="" fill="#9065F7" transform="translate(0,0)"/>
<path d="" fill="#8F68F9" transform="translate(0,0)"/>
<path d="" fill="#8D63F5" transform="translate(0,0)"/>
<path d="" fill="#756AF0" transform="translate(0,0)"/>
<path d="" fill="#5E6FFF" transform="translate(0,0)"/>
<path d="" fill="#5C70FF" transform="translate(0,0)"/>
<path d="" fill="#5D72FF" transform="translate(0,0)"/>
<path d="" fill="#5D71FD" transform="translate(0,0)"/>
<path d="" fill="#5F73FB" transform="translate(0,0)"/>
<path d="" fill="#736BFE" transform="translate(0,0)"/>
<path d="" fill="#5D73FF" transform="translate(0,0)"/>
<path d="" fill="#6173FF" transform="translate(0,0)"/>
<path d="" fill="#5F72FF" transform="translate(0,0)"/>
<path d="" fill="#5D74FF" transform="translate(0,0)"/>
<path d="" fill="#5D75FF" transform="translate(0,0)"/>
<path d="" fill="#5C73FE" transform="translate(0,0)"/>
<path d="" fill="#5F73FF" transform="translate(0,0)"/>
<path d="" fill="#736AFF" transform="translate(0,0)"/>
<path d="" fill="#5C74FF" transform="translate(0,0)"/>
<path d="" fill="#796BEC" transform="translate(0,0)"/>
<path d="" fill="#5776FD" transform="translate(0,0)"/>
<path d="" fill="#9165F3" transform="translate(0,0)"/>
<path d="" fill="#8F68FB" transform="translate(0,0)"/>
<path d="" fill="#5777FE" transform="translate(0,0)"/>
<path d="" fill="#5777FC" transform="translate(0,0)"/>
<path d="" fill="#8C65F6" transform="translate(0,0)"/>
<path d="" fill="#8E64FA" transform="translate(0,0)"/>
<path d="" fill="#8F67F8" transform="translate(0,0)"/>
<path d="" fill="#916AF9" transform="translate(0,0)"/>
<path d="" fill="#9168F6" transform="translate(0,0)"/>
<path d="" fill="#8F67FA" transform="translate(0,0)"/>
<path d="" fill="#9069FC" transform="translate(0,0)"/>
<path d="" fill="#5476FE" transform="translate(0,0)"/>
<path d="" fill="#8E65F5" transform="translate(0,0)"/>
<path d="" fill="#9065FD" transform="translate(0,0)"/>
<path d="" fill="#776DEF" transform="translate(0,0)"/>
<path d="" fill="#8F66F4" transform="translate(0,0)"/>
<path d="" fill="#5673FC" transform="translate(0,0)"/>
<path d="" fill="#9065F4" transform="translate(0,0)"/>
<path d="" fill="#5276FF" transform="translate(0,0)"/>
<path d="" fill="#5576FB" transform="translate(0,0)"/>
<path d="" fill="#5475FE" transform="translate(0,0)"/>
<path d="" fill="#5374FC" transform="translate(0,0)"/>
<path d="" fill="#8F68F4" transform="translate(0,0)"/>
<path d="" fill="#9166FC" transform="translate(0,0)"/>
<path d="" fill="#9165FE" transform="translate(0,0)"/>
<path d="" fill="#5373FD" transform="translate(0,0)"/>
<path d="" fill="#8E67F1" transform="translate(0,0)"/>
<path d="" fill="#5677FF" transform="translate(0,0)"/>
<path d="" fill="#9067FB" transform="translate(0,0)"/>
<path d="" fill="#9265FE" transform="translate(0,0)"/>
<path d="" fill="#9066FA" transform="translate(0,0)"/>
<path d="" fill="#9268F9" transform="translate(0,0)"/>
<path d="" fill="#8F63FB" transform="translate(0,0)"/>
<path d="" fill="#9368F9" transform="translate(0,0)"/>
<path d="" fill="#6B70FB" transform="translate(0,0)"/>
<path d="" fill="#6170FB" transform="translate(0,0)"/>
<path d="" fill="#8F67FC" transform="translate(0,0)"/>
<path d="" fill="#8D68FC" transform="translate(0,0)"/>
<path d="" fill="#9267FE" transform="translate(0,0)"/>
<path d="" fill="#8B67F9" transform="translate(0,0)"/>
<path d="" fill="#6171FB" transform="translate(0,0)"/>
<path d="" fill="#8D63FB" transform="translate(0,0)"/>
<path d="" fill="#8D66FB" transform="translate(0,0)"/>
<path d="" fill="#8F66FE" transform="translate(0,0)"/>
<path d="" fill="#8D67FF" transform="translate(0,0)"/>
<path d="" fill="#8F6CFD" transform="translate(0,0)"/>
<path d="" fill="#8F64FF" transform="translate(0,0)"/>
<path d="" fill="#8F65FD" transform="translate(0,0)"/>
<path d="" fill="#906AFC" transform="translate(0,0)"/>
<path d="" fill="#8F67FD" transform="translate(0,0)"/>
<path d="" fill="#8D67FD" transform="translate(0,0)"/>
<path d="" fill="#696EFE" transform="translate(0,0)"/>
<path d="" fill="#8D66FD" transform="translate(0,0)"/>
<path d="" fill="#686FFB" transform="translate(0,0)"/>
<path d="" fill="#8B66FB" transform="translate(0,0)"/>
<path d="" fill="#8866FD" transform="translate(0,0)"/>
<path d="" fill="#8D65FE" transform="translate(0,0)"/>
<path d="" fill="#8A63FC" transform="translate(0,0)"/>
<path d="" fill="#8F66FD" transform="translate(0,0)"/>
<path d="" fill="#8E67FF" transform="translate(0,0)"/>
<path d="" fill="#5678FE" transform="translate(0,0)"/>
<path d="" fill="#5978FE" transform="translate(0,0)"/>
<path d="" fill="#8A64FD" transform="translate(0,0)"/>
<path d="" fill="#8968FE" transform="translate(0,0)"/>
<path d="" fill="#8763FE" transform="translate(0,0)"/>
<path d="" fill="#8C67FD" transform="translate(0,0)"/>
<path d="" fill="#8866FE" transform="translate(0,0)"/>
<path d="" fill="#8C66FA" transform="translate(0,0)"/>
<path d="" fill="#8A66FB" transform="translate(0,0)"/>
<path d="" fill="#8D64FB" transform="translate(0,0)"/>
<path d="" fill="#8A65FD" transform="translate(0,0)"/>
<path d="" fill="#8964FF" transform="translate(0,0)"/>
<path d="" fill="#8B64FE" transform="translate(0,0)"/>
<path d="" fill="#5974FD" transform="translate(0,0)"/>
<path d="" fill="#8A68FD" transform="translate(0,0)"/>
<path d="" fill="#8867FD" transform="translate(0,0)"/>
<path d="" fill="#6F6EFC" transform="translate(0,0)"/>
<path d="" fill="#6A6EFF" transform="translate(0,0)"/>
<path d="" fill="#8D69FB" transform="translate(0,0)"/>
<path d="" fill="#8A68FD" transform="translate(0,0)"/>
<path d="" fill="#6D6CFF" transform="translate(0,0)"/>
<path d="" fill="#8F67FD" transform="translate(0,0)"/>
<path d="" fill="#8D68FB" transform="translate(0,0)"/>
<path d="" fill="#5879F9" transform="translate(0,0)"/>
<path d="" fill="#8C68FD" transform="translate(0,0)"/>
<path d="" fill="#9068FC" transform="translate(0,0)"/>
<path d="" fill="#7567FB" transform="translate(0,0)"/>
<path d="" fill="#5D6EFB" transform="translate(0,0)"/>
<path d="" fill="#736BFA" transform="translate(0,0)"/>
<path d="" fill="#5F70FC" transform="translate(0,0)"/>
<path d="" fill="#8964FB" transform="translate(0,0)"/>
<path d="" fill="#6170FC" transform="translate(0,0)"/>
<path d="" fill="#8769F4" transform="translate(0,0)"/>
<path d="" fill="#8964FC" transform="translate(0,0)"/>
<path d="" fill="#8865FB" transform="translate(0,0)"/>
<path d="" fill="#8B67FD" transform="translate(0,0)"/>
<path d="" fill="#686FFC" transform="translate(0,0)"/>
<path d="" fill="#6B71FD" transform="translate(0,0)"/>
<path d="" fill="#886AFD" transform="translate(0,0)"/>
<path d="" fill="#8869FF" transform="translate(0,0)"/>
<path d="" fill="#8966FF" transform="translate(0,0)"/>
<path d="" fill="#876AFF" transform="translate(0,0)"/>
<path d="" fill="#8768FC" transform="translate(0,0)"/>
<path d="" fill="#8566FE" transform="translate(0,0)"/>
<path d="" fill="#8667FF" transform="translate(0,0)"/>
<path d="" fill="#886AFE" transform="translate(0,0)"/>
<path d="" fill="#896AFE" transform="translate(0,0)"/>
<path d="" fill="#8969FE" transform="translate(0,0)"/>
<path d="" fill="#8666FE" transform="translate(0,0)"/>
<path d="" fill="#5277FF" transform="translate(0,0)"/>
<path d="" fill="#4E76FF" transform="translate(0,0)"/>
<path d="" fill="#5076FD" transform="translate(0,0)"/>
<path d="" fill="#5178FF" transform="translate(0,0)"/>
<path d="" fill="#5077FF" transform="translate(0,0)"/>
<path d="" fill="#5078FF" transform="translate(0,0)"/>
<path d="" fill="#4E77FE" transform="translate(0,0)"/>
<path d="" fill="#4D77FD" transform="translate(0,0)"/>
<path d="" fill="#4F79FF" transform="translate(0,0)"/>
<path d="" fill="#5279FF" transform="translate(0,0)"/>
<path d="" fill="#5379FF" transform="translate(0,0)"/>
<path d="" fill="#5579FF" transform="translate(0,0)"/>
<path d="" fill="#8769FE" transform="translate(0,0)"/>
<path d="" fill="#5575FF" transform="translate(0,0)"/>
<path d="" fill="#5376FF" transform="translate(0,0)"/>
<path d="" fill="#856AFF" transform="translate(0,0)"/>
<path d="" fill="#8765FE" transform="translate(0,0)"/>
<path d="" fill="#8165FF" transform="translate(0,0)"/>
<path d="" fill="#8469FE" transform="translate(0,0)"/>
<path d="" fill="#8468FF" transform="translate(0,0)"/>
<path d="" fill="#8264FC" transform="translate(0,0)"/>
<path d="" fill="#8363FA" transform="translate(0,0)"/>
<path d="" fill="#8666FF" transform="translate(0,0)"/>
<path d="" fill="#766CFD" transform="translate(0,0)"/>
<path d="" fill="#5978FF" transform="translate(0,0)"/>
<path d="" fill="#8868FF" transform="translate(0,0)"/>
<path d="" fill="#776DFD" transform="translate(0,0)"/>
<path d="" fill="#766CFE" transform="translate(0,0)"/>
<path d="" fill="#786DFB" transform="translate(0,0)"/>
<path d="" fill="#5678FF" transform="translate(0,0)"/>
<path d="" fill="#8764FB" transform="translate(0,0)"/>
<path d="" fill="#7B68FC" transform="translate(0,0)"/>
<path d="" fill="#706DFB" transform="translate(0,0)"/>
<path d="" fill="#8466FD" transform="translate(0,0)"/>
<path d="" fill="#7D6BFA" transform="translate(0,0)"/>
<path d="" fill="#756EFC" transform="translate(0,0)"/>
<path d="" fill="#5876FD" transform="translate(0,0)"/>
<path d="" fill="#8267FC" transform="translate(0,0)"/>
<path d="" fill="#8B64FE" transform="translate(0,0)"/>
<path d="" fill="#826AFE" transform="translate(0,0)"/>
<path d="" fill="#8467FE" transform="translate(0,0)"/>
<path d="" fill="#8367FC" transform="translate(0,0)"/>
<path d="" fill="#8368FC" transform="translate(0,0)"/>
<path d="" fill="#856AF0" transform="translate(0,0)"/>
<path d="" fill="#5877FE" transform="translate(0,0)"/>
<path d="" fill="#5477FF" transform="translate(0,0)"/>
<path d="" fill="#5478FD" transform="translate(0,0)"/>
<path d="" fill="#5676FB" transform="translate(0,0)"/>
<path d="" fill="#736EFF" transform="translate(0,0)"/>
<path d="" fill="#726FFE" transform="translate(0,0)"/>
<path d="" fill="#8369EF" transform="translate(0,0)"/>
<path d="" fill="#8763FD" transform="translate(0,0)"/>
<path d="" fill="#8865FF" transform="translate(0,0)"/>
<path d="" fill="#7B66FD" transform="translate(0,0)"/>
<path d="" fill="#856BFE" transform="translate(0,0)"/>
<path d="" fill="#856CFF" transform="translate(0,0)"/>
<path d="" fill="#876AFD" transform="translate(0,0)"/>
<path d="" fill="#8862FF" transform="translate(0,0)"/>
<path d="" fill="#8567FD" transform="translate(0,0)"/>
<path d="" fill="#8763FD" transform="translate(0,0)"/>
<path d="" fill="#7370FF" transform="translate(0,0)"/>
<path d="" fill="#836BFD" transform="translate(0,0)"/>
<path d="" fill="#8865FE" transform="translate(0,0)"/>
<path d="" fill="#8667FF" transform="translate(0,0)"/>
<path d="" fill="#8B61FE" transform="translate(0,0)"/>
<path d="" fill="#8865FF" transform="translate(0,0)"/>
<path d="" fill="#816DFF" transform="translate(0,0)"/>
<path d="" fill="#7E68FD" transform="translate(0,0)"/>
<path d="" fill="#836BF0" transform="translate(0,0)"/>
<path d="" fill="#836BEE" transform="translate(0,0)"/>
<path d="" fill="#756EFF" transform="translate(0,0)"/>
<path d="" fill="#836CEF" transform="translate(0,0)"/>
<path d="" fill="#8367F9" transform="translate(0,0)"/>
<path d="" fill="#8265FE" transform="translate(0,0)"/>
<path d="" fill="#826AF0" transform="translate(0,0)"/>
<path d="" fill="#8666FF" transform="translate(0,0)"/>
<path d="" fill="#8866FF" transform="translate(0,0)"/>
<path d="" fill="#806CFF" transform="translate(0,0)"/>
<path d="" fill="#8568FF" transform="translate(0,0)"/>
<path d="" fill="#8367FA" transform="translate(0,0)"/>
<path d="" fill="#8169F1" transform="translate(0,0)"/>
<path d="" fill="#8568FC" transform="translate(0,0)"/>
<path d="" fill="#8568FE" transform="translate(0,0)"/>
<path d="" fill="#866AFE" transform="translate(0,0)"/>
<path d="" fill="#7E6BFF" transform="translate(0,0)"/>
<path d="" fill="#806FFF" transform="translate(0,0)"/>
<path d="" fill="#796CFF" transform="translate(0,0)"/>
<path d="" fill="#836CF0" transform="translate(0,0)"/>
<path d="" fill="#796EFE" transform="translate(0,0)"/>
<path d="" fill="#7C6CFF" transform="translate(0,0)"/>
<path d="" fill="#8669FF" transform="translate(0,0)"/>
<path d="" fill="#7F68FF" transform="translate(0,0)"/>
<path d="" fill="#806EF4" transform="translate(0,0)"/>
<path d="" fill="#816AF6" transform="translate(0,0)"/>
<path d="" fill="#816AFD" transform="translate(0,0)"/>
<path d="" fill="#8369FE" transform="translate(0,0)"/>
<path d="" fill="#8567FD" transform="translate(0,0)"/>
<path d="" fill="#796DFE" transform="translate(0,0)"/>
<path d="" fill="#5674FE" transform="translate(0,0)"/>
<path d="" fill="#5676FE" transform="translate(0,0)"/>
<path d="" fill="#5A7AFE" transform="translate(0,0)"/>
<path d="" fill="#7D69F6" transform="translate(0,0)"/>
<path d="" fill="#816BFD" transform="translate(0,0)"/>
<path d="" fill="#7E68FF" transform="translate(0,0)"/>
<path d="" fill="#8069FF" transform="translate(0,0)"/>
<path d="" fill="#7E67FF" transform="translate(0,0)"/>
<path d="" fill="#7968FC" transform="translate(0,0)"/>
<path d="" fill="#7F65FB" transform="translate(0,0)"/>
<path d="" fill="#8069FF" transform="translate(0,0)"/>
<path d="" fill="#7B69FD" transform="translate(0,0)"/>
<path d="" fill="#5975FC" transform="translate(0,0)"/>
<path d="" fill="#7F69FE" transform="translate(0,0)"/>
<path d="" fill="#7C68FF" transform="translate(0,0)"/>
<path d="" fill="#5579FC" transform="translate(0,0)"/>
<path d="" fill="#5579F8" transform="translate(0,0)"/>
<path d="" fill="#567AFC" transform="translate(0,0)"/>
<path d="" fill="#5577FC" transform="translate(0,0)"/>
<path d="" fill="#776BFF" transform="translate(0,0)"/>
<path d="" fill="#7769FD" transform="translate(0,0)"/>
<path d="" fill="#796AFC" transform="translate(0,0)"/>
<path d="" fill="#766AFF" transform="translate(0,0)"/>
<path d="" fill="#786BFE" transform="translate(0,0)"/>
<path d="" fill="#786BFF" transform="translate(0,0)"/>
<path d="" fill="#786BFE" transform="translate(0,0)"/>
<path d="" fill="#7968FF" transform="translate(0,0)"/>
<path d="" fill="#776BFF" transform="translate(0,0)"/>
<path d="" fill="#7A6AFF" transform="translate(0,0)"/>
<path d="" fill="#796EFB" transform="translate(0,0)"/>
<path d="" fill="#716BFB" transform="translate(0,0)"/>
<path d="" fill="#7A6CF4" transform="translate(0,0)"/>
<path d="" fill="#7C6BFC" transform="translate(0,0)"/>
<path d="" fill="#7B6AFF" transform="translate(0,0)"/>
<path d="" fill="#7B6DFF" transform="translate(0,0)"/>
<path d="" fill="#796BF4" transform="translate(0,0)"/>
<path d="" fill="#796AFF" transform="translate(0,0)"/>
<path d="" fill="#6F69FE" transform="translate(0,0)"/>
<path d="" fill="#7C69FF" transform="translate(0,0)"/>
<path d="" fill="#6B6CFF" transform="translate(0,0)"/>
<path d="" fill="#6F6DFD" transform="translate(0,0)"/>
<path d="" fill="#796BFE" transform="translate(0,0)"/>
<path d="" fill="#6574FD" transform="translate(0,0)"/>
<path d="" fill="#786CF6" transform="translate(0,0)"/>
<path d="" fill="#6A6DFC" transform="translate(0,0)"/>
<path d="" fill="#786BF6" transform="translate(0,0)"/>
<path d="" fill="#7B6BF8" transform="translate(0,0)"/>
<path d="" fill="#6B6EFB" transform="translate(0,0)"/>
<path d="" fill="#776CF5" transform="translate(0,0)"/>
<path d="" fill="#5972F8" transform="translate(0,0)"/>
<path d="" fill="#587AFC" transform="translate(0,0)"/>
<path d="" fill="#6C6CFE" transform="translate(0,0)"/>
<path d="" fill="#7B6CF6" transform="translate(0,0)"/>
<path d="" fill="#6E6EFD" transform="translate(0,0)"/>
<path d="" fill="#7466F8" transform="translate(0,0)"/>
<path d="" fill="#7D6DF6" transform="translate(0,0)"/>
<path d="" fill="#7E6CF5" transform="translate(0,0)"/>
<path d="" fill="#7B6EF5" transform="translate(0,0)"/>
<path d="" fill="#7767F6" transform="translate(0,0)"/>
<path d="" fill="#7668F5" transform="translate(0,0)"/>
<path d="" fill="#786BFE" transform="translate(0,0)"/>
<path d="" fill="#7A69FE" transform="translate(0,0)"/>
<path d="" fill="#7968F6" transform="translate(0,0)"/>
<path d="" fill="#7A6BF8" transform="translate(0,0)"/>
<path d="" fill="#7A68FC" transform="translate(0,0)"/>
<path d="" fill="#736CFC" transform="translate(0,0)"/>
<path d="" fill="#7769FB" transform="translate(0,0)"/>
<path d="" fill="#796BF4" transform="translate(0,0)"/>
<path d="" fill="#7569FE" transform="translate(0,0)"/>
<path d="" fill="#776AFD" transform="translate(0,0)"/>
<path d="" fill="#7A6BF7" transform="translate(0,0)"/>
<path d="" fill="#6D68FA" transform="translate(0,0)"/>
<path d="" fill="#7668F6" transform="translate(0,0)"/>
<path d="" fill="#7A6AF2" transform="translate(0,0)"/>
<path d="" fill="#7669F4" transform="translate(0,0)"/>
<path d="" fill="#7B6CF6" transform="translate(0,0)"/>
<path d="" fill="#786AF0" transform="translate(0,0)"/>
<path d="" fill="#756AF2" transform="translate(0,0)"/>
<path d="" fill="#7569F3" transform="translate(0,0)"/>
<path d="" fill="#7369F2" transform="translate(0,0)"/>
<path d="" fill="#7569F5" transform="translate(0,0)"/>
<path d="" fill="#756AF3" transform="translate(0,0)"/>
</svg>
